<?xml version="1.0" encoding="UTF-8"?><svg id="Ebene_1" xmlns="http://www.w3.org/2000/svg" xmlns:xlink="http://www.w3.org/1999/xlink" viewBox="0 0 141.3529 162.2258"><defs><style>.cls-1{fill:#cda018;opacity:.8;}.cls-1,.cls-2,.cls-3,.cls-4,.cls-5,.cls-6,.cls-7{stroke-width:0px;}.cls-8{stroke:#1d1e1b;}.cls-8,.cls-2,.cls-9{fill:none;}.cls-8,.cls-9,.cls-10{stroke-miterlimit:10;}.cls-3{fill:#d72355;}.cls-3,.cls-4{opacity:.7;}.cls-11{clip-path:url(#clippath-1);}.cls-9{opacity:.99;stroke-width:20px;}.cls-9,.cls-10{stroke:#1d1d1b;}.cls-10,.cls-5{fill:#fff;}.cls-12{clip-path:url(#clippath);}.cls-4{fill:#d72256;}.cls-6{fill:#7a4293;}.cls-6,.cls-7{opacity:.9;}.cls-7{fill:#3a87c8;}</style><clipPath id="clippath"><circle class="cls-2" cx="87.0674" cy="75.7666" r="9.5964"/></clipPath><clipPath id="clippath-1"><circle class="cls-2" cx="58.8738" cy="75.1594" r="9.5964"/></clipPath></defs><circle class="cls-7" cx="82.5882" cy="94.3776" r="52.0588"/><circle class="cls-6" cx="65.8235" cy="98.63" r="45.1765"/><circle class="cls-1" cx="61.7476" cy="60.3358" r="34.0417"/><circle class="cls-3" cx="103.5882" cy="84.3358" r="37.7647"/><circle class="cls-4" cx="105.7059" cy="34.5711" r="5.2941"/><circle class="cls-7" cx="90.4412" cy="13.1471" r="13.1471"/><circle class="cls-4" cx="8.3824" cy="66.777" r="8.3824"/><circle class="cls-6" cx="46.0038" cy="157.3396" r="4.8861"/><circle class="cls-1" cx="114" cy="153.3187" r="6.8824"/><circle class="cls-5" cx="72.6471" cy="91.1209" r="24.1765"/><ellipse class="cls-10" cx="59.8738" cy="107.1244" rx="7.7733" ry="8.9046"/><circle class="cls-10" cx="59.8738" cy="96.567" r="4.5253"/><ellipse class="cls-10" cx="85.0674" cy="107.1244" rx="7.7733" ry="8.9046"/><circle class="cls-10" cx="85.0674" cy="96.567" r="4.5253"/><ellipse class="cls-10" cx="72.6471" cy="109.9113" rx="11.4184" ry="13.0802"/><circle class="cls-10" cx="72.6471" cy="94.4031" r="6.6473"/><circle class="cls-9" cx="72.8824" cy="90.6888" r="32.8235"/><circle class="cls-5" cx="87.0674" cy="75.7666" r="9.6014"/><g class="cls-12"><ellipse class="cls-10" cx="87.0674" cy="81.3469" rx="6.4084" ry="7.341"/></g><circle class="cls-10" cx="87.0674" cy="72.6432" r="3.7307"/><circle class="cls-8" cx="87.0674" cy="75.7666" r="9.6014"/><circle class="cls-5" cx="58.8738" cy="75.1594" r="9.6014"/><g class="cls-11"><ellipse class="cls-10" cx="58.8738" cy="80.7396" rx="6.4084" ry="7.341"/></g><circle class="cls-10" cx="58.8738" cy="72.0359" r="3.7307"/><circle class="cls-8" cx="58.8738" cy="75.1594" r="9.6014"/></svg>