<svg xmlns="http://www.w3.org/2000/svg" viewBox="0 0 56.203 25.533">
  <head>
      <link href="css/mobile.css" rel="stylesheet" />
      <link rel="stylesheet" media="(min-width: 800px)" href="css/desktop.css" />
  </head>
  <defs>
    <style>
      .cls-1 {
        fill: #1b378e;
      }

      .cls-2 {
        fill: #12bcd8;
      }

      .text {

        font-family: 'Montserrat', sans-serif;
        font-size: 0.16rem;
        fill: #f5f5f5;

      }

    </style>
  </defs>
  <g id="Logo_qua_notext_web" transform="translate(-152.002 -14.544)">
    <path id="Pfad_1" data-name="Pfad 1" class="cls-1" d="M2,11.033A11.114,11.114,0,0,1,3.751,4.484,5.708,5.708,0,0,1,8.7,2a4.86,4.86,0,0,1,2.471.62,5.649,5.649,0,0,1,1.888,1.755l.369-2.058h4V22.789l2.213.472v2.788H10.536V23.261l2.213-.472V17.877a4.934,4.934,0,0,1-1.785,1.431,5.317,5.317,0,0,1-2.323.487,5.826,5.826,0,0,1-4.9-2.308A9.89,9.89,0,0,1,2,11.365Zm4.624.332a7.154,7.154,0,0,0,.738,3.57A2.626,2.626,0,0,0,9.82,16.239a3.776,3.776,0,0,0,1.748-.369,3.031,3.031,0,0,0,1.187-1.1V7.161a3.326,3.326,0,0,0-1.173-1.187A3.429,3.429,0,0,0,9.865,5.56,2.6,2.6,0,0,0,7.4,7.08a8.562,8.562,0,0,0-.782,3.953Z" transform="translate(151.495 14.029)"/>
    <path id="Pfad_2" data-name="Pfad 2" class="cls-1" d="M38.561,17.4a5.694,5.694,0,0,1-2.036,1.859,5.841,5.841,0,0,1-2.766.649,5.384,5.384,0,0,1-4.248-1.741q-1.541-1.726-1.534-5.391V5.7L26.09,5.218V2.43H32.6V12.807a4.491,4.491,0,0,0,.627,2.685,2.213,2.213,0,0,0,1.866.819,4.639,4.639,0,0,0,1.888-.354A3.363,3.363,0,0,0,38.3,14.931V5.7l-2.028-.479V2.43h6.638V16.325l2.072.479v2.773H38.841Z" transform="translate(145.166 13.914)"/>
    <path id="Pfad_3" data-name="Pfad 3" class="cls-1" d="M65.176,19.461a6.4,6.4,0,0,1-.332-.885,7.772,7.772,0,0,1-.229-.907,6.343,6.343,0,0,1-2,1.534,6.011,6.011,0,0,1-2.707.59,5.657,5.657,0,0,1-4-1.372,4.838,4.838,0,0,1-1.475-3.732,4.241,4.241,0,0,1,1.888-3.724A10.128,10.128,0,0,1,62,9.652h2.36V7.971a2.537,2.537,0,0,0-.738-1.918,2.95,2.95,0,0,0-2.109-.679,5.111,5.111,0,0,0-1.409.177,4.16,4.16,0,0,0-1,.435l-.3,1.844H55.36V4.025A13.526,13.526,0,0,1,58.265,2.55,10.768,10.768,0,0,1,61.857,2,8.113,8.113,0,0,1,67.02,3.561a5.31,5.31,0,0,1,1.991,4.425v7.825a6.374,6.374,0,0,0,.052.664l1.416.192v2.773Zm-4.012-3.09a3.99,3.99,0,0,0,1.9-.457,3.687,3.687,0,0,0,1.328-1.128V12.167h-2.36a3.208,3.208,0,0,0-2.213.693,2.168,2.168,0,0,0-.738,1.652,1.711,1.711,0,0,0,.568,1.364,2.286,2.286,0,0,0,1.49.494Z" transform="translate(137.727 14.03)"/>
    <path id="Pfad_4" data-name="Pfad 4" class="cls-2" d="M0,9.033A11.114,11.114,0,0,1,1.751,2.484,5.708,5.708,0,0,1,6.7,0,4.86,4.86,0,0,1,9.17.618a5.649,5.649,0,0,1,1.888,1.755L11.427.315h4V20.789l2.213.472v2.788H8.536V21.261l2.213-.472V15.877a4.934,4.934,0,0,1-1.785,1.431,5.317,5.317,0,0,1-2.331.487,5.826,5.826,0,0,1-4.89-2.308A9.89,9.89,0,0,1,0,9.365Zm4.624.332a7.154,7.154,0,0,0,.738,3.57A2.626,2.626,0,0,0,7.82,14.239a3.776,3.776,0,0,0,1.748-.369,3.031,3.031,0,0,0,1.187-1.1V5.161A3.326,3.326,0,0,0,9.583,3.973,3.429,3.429,0,0,0,7.865,3.56,2.6,2.6,0,0,0,5.4,5.08,8.562,8.562,0,0,0,4.62,9.033Z" transform="translate(152.02 14.554)"/>
    <path id="Pfad_5" data-name="Pfad 5" class="cls-2" d="M36.561,15.4a5.694,5.694,0,0,1-2.036,1.859,5.841,5.841,0,0,1-2.766.649,5.384,5.384,0,0,1-4.248-1.741q-1.541-1.726-1.534-5.391V3.7L24.09,3.218V.43H30.6V10.807a4.491,4.491,0,0,0,.627,2.685,2.213,2.213,0,0,0,1.866.819,4.639,4.639,0,0,0,1.888-.354A3.363,3.363,0,0,0,36.3,12.931V3.7l-2.028-.479V.43h6.638V14.325l2.072.479v2.773H36.841Z" transform="translate(145.691 14.439)"/>
    <path id="Pfad_6" data-name="Pfad 6" class="cls-2" d="M63.176,17.461a6.4,6.4,0,0,1-.332-.885,7.773,7.773,0,0,1-.229-.907,6.343,6.343,0,0,1-2,1.534,6.011,6.011,0,0,1-2.707.59,5.657,5.657,0,0,1-4-1.372,4.838,4.838,0,0,1-1.475-3.732,4.241,4.241,0,0,1,1.888-3.724A10.128,10.128,0,0,1,60,7.652h2.36V5.971a2.537,2.537,0,0,0-.738-1.918,2.95,2.95,0,0,0-2.109-.679,5.111,5.111,0,0,0-1.409.177,4.16,4.16,0,0,0-1,.435l-.3,1.844H53.36V2.025A13.526,13.526,0,0,1,56.265.55,10.768,10.768,0,0,1,59.857,0,8.113,8.113,0,0,1,65.02,1.561a5.31,5.31,0,0,1,1.991,4.425v7.825a6.37,6.37,0,0,0,.052.664l1.416.192v2.773Zm-4.012-3.09a3.99,3.99,0,0,0,1.9-.457,3.688,3.688,0,0,0,1.328-1.128V10.167h-2.36a3.208,3.208,0,0,0-2.213.693,2.168,2.168,0,0,0-.738,1.652,1.711,1.711,0,0,0,.568,1.364,2.286,2.286,0,0,0,1.49.494Z" transform="translate(138.252 14.555)"/>
    
    <line x1="174.5" y1="38" x2="201.5" y2="38" style="stroke:#1b378e;stroke-width:4" />

    <line x1="173" y1="36.5" x2="200" y2="36.5" style="stroke:#12bcd8;stroke-width:4" />
    
    <text x="174.5" y="37.5" class="text">mehr als nur Wasser.</text>

    

  </g>
</svg>
